<svg xmlns="http://www.w3.org/2000/svg" viewBox="0 0 32 32" fill="none">
  <defs>
    <linearGradient id="liq" x1="16" y1="20" x2="16" y2="28" gradientUnits="userSpaceOnUse">
      <stop stop-color="#3CB6EC"/>
      <stop offset="1" stop-color="#1E86D8"/>
    </linearGradient>
  </defs>
  <path d="M9.2 20.5H22.8L24 23C25.5 26 23.5 28 21 28H11C8.5 28 6.5 26 8 23L9.2 20.5Z" fill="url(#liq)"/>
  <circle cx="13" cy="24.6" r="1.1" fill="#CDEBFB"/>
  <circle cx="18.4" cy="25.5" r="0.8" fill="#CDEBFB"/>
  <path d="M13.5 5.5V11.5L8 23C6.5 26 8.5 28 11 28H21C23.5 28 25.5 26 24 23L18.5 11.5V5.5" stroke="#1A66C9" stroke-width="2" stroke-linejoin="round" stroke-linecap="round"/>
  <path d="M11.5 5H20.5" stroke="#1A66C9" stroke-width="2" stroke-linecap="round"/>
  <circle cx="16" cy="9.3" r="1.4" fill="#33A7E6"/>
  <circle cx="19.2" cy="5" r="1" fill="#33A7E6"/>
  <circle cx="13.4" cy="3.2" r="0.8" fill="#33A7E6"/>
</svg>
